<svg viewBox="0 0 512 512" xmlns="http://www.w3.org/2000/svg" fill="#ffffff">
    <path d="m492 119.379c-10.016-5.785-21.979-5.786-32 0l-84.663 48.88v-59.16c0-17.645-14.355-32-32-32h-307.337c-17.645 0-32 14.355-32 32v293.803c0 17.645 14.354 32 31.999 32h307.338c17.645 0 32-14.355 32-32v-59.16l84.663 48.88c10.021 5.785 21.982 5.785 32.001 0s15.999-16.146 15.999-27.713v-217.818c0-11.568-5.981-21.927-16-27.712zm-140.663 283.522c0 4.411-3.589 8-8 8h-307.338c-4.41 0-7.999-3.589-7.999-8v-293.802c0-4.411 3.589-8 8-8h307.337c4.411 0 8 3.589 8 8zm132.663-37.992c0 3.064-1.346 5.396-4 6.928-2.655 1.533-5.347 1.532-8 0l-96.663-55.808v-120.057l96.662-55.808c2.655-1.533 5.346-1.533 8.001 0 2.654 1.533 4 3.864 4 6.928z"/>
</svg>