<svg xmlns="http://www.w3.org/2000/svg" viewBox="0 0 100 100" fill="#ffffff">
    <path d="M87.08,44.19H23V38.28a3.73,3.73,0,0,1,3.72-3.72H55.28A6.73,6.73,0,0,0,62,27.84V15.06a1.5,1.5,0,0,0-3,0V27.84a3.73,3.73,0,0,1-3.72,3.72H26.72A6.73,6.73,0,0,0,20,38.28v5.91H12.92A5.93,5.93,0,0,0,7,50.11V79a5.94,5.94,0,0,0,5.92,5.92H87.08A5.94,5.94,0,0,0,93,79V50.11A5.93,5.93,0,0,0,87.08,44.19ZM90,79a2.92,2.92,0,0,1-2.92,2.92H12.92A2.92,2.92,0,0,1,10,79V50.11a2.92,2.92,0,0,1,2.92-2.92H87.08A2.92,2.92,0,0,1,90,50.11Z"/>
    <path d="M22,54.06H18a1.5,1.5,0,0,0,0,3h4a1.5,1.5,0,0,0,0-3Z"/>
    <path d="M30,57.06h4a1.5,1.5,0,0,0,0-3H30a1.5,1.5,0,0,0,0,3Z"/>
    <path d="M42,57.06h4a1.5,1.5,0,0,0,0-3H42a1.5,1.5,0,0,0,0,3Z"/>
    <path d="M58,54.06H54a1.5,1.5,0,0,0,0,3h4a1.5,1.5,0,0,0,0-3Z"/>
    <path d="M70,54.06H66a1.5,1.5,0,0,0,0,3h4a1.5,1.5,0,0,0,0-3Z"/>
    <path d="M82,54.06H78a1.5,1.5,0,0,0,0,3h4a1.5,1.5,0,0,0,0-3Z"/>
    <path d="M22,63.06H18a1.5,1.5,0,0,0,0,3h4a1.5,1.5,0,0,0,0-3Z"/>
    <path d="M30,66.06h4a1.5,1.5,0,0,0,0-3H30a1.5,1.5,0,0,0,0,3Z"/>
    <path d="M42,66.06h4a1.5,1.5,0,0,0,0-3H42a1.5,1.5,0,0,0,0,3Z"/>
    <path d="M58,63.06H54a1.5,1.5,0,0,0,0,3h4a1.5,1.5,0,0,0,0-3Z"/>
    <path d="M70,63.06H66a1.5,1.5,0,0,0,0,3h4a1.5,1.5,0,0,0,0-3Z"/>
    <path d="M82,63.06H78a1.5,1.5,0,0,0,0,3h4a1.5,1.5,0,0,0,0-3Z"/>
    <path d="M22,72.06H18a1.5,1.5,0,0,0,0,3h4a1.5,1.5,0,0,0,0-3Z"/>
    <path d="M58,72.06H30a1.5,1.5,0,0,0,0,3H58a1.5,1.5,0,0,0,0-3Z"/>
    <path d="M70,72.06H66a1.5,1.5,0,0,0,0,3h4a1.5,1.5,0,0,0,0-3Z"/>
    <path d="M82,72.06H78a1.5,1.5,0,0,0,0,3h4a1.5,1.5,0,0,0,0-3Z"/>
</svg>