<svg viewBox="0 0 100 100" xmlns="http://www.w3.org/2000/svg">
    <path d="m48.5 78.591v14.909h-10.637a1.5 1.5 0 0 0 0 3h24.274a1.5 1.5 0 0 0 0-3h-10.637v-14.909a26.421 26.421 0 0 0 24.889-26.344 1.5 1.5 0 0 0 -3 0 23.415 23.415 0 0 1 -21.889 23.336v-7.8a17.334 17.334 0 0 0 15.818-17.238v-29.727a17.318 17.318 0 1 0 -34.636 0v29.727a17.334 17.334 0 0 0 15.818 17.243v7.8a23.415 23.415 0 0 1 -21.889-23.341 1.5 1.5 0 0 0 -3 0 26.421 26.421 0 0 0 24.889 26.344zm-12.818-28.046v-29.727a14.318 14.318 0 1 1 28.636 0v29.727a14.333 14.333 0 0 1 -14.292 14.317h-.026-.026a14.333 14.333 0 0 1 -14.292-14.317z" fill="#ffffff"></path>
</svg>