<svg version="1.1" xmlns="http://www.w3.org/2000/svg" viewBox="0 0 512 512">
    <path d="M339.08,374.03c-22.133-35.317-33.832-76.131-33.832-118.03s11.699-82.714,33.832-118.03 c21.545-34.38,52.024-62.245,88.14-80.584l29.316-14.886l-29.316-14.887C391.138,9.291,352.191,0,311.464,0 c-68.38,0-132.667,26.628-181.02,74.98C82.093,123.333,55.464,187.62,55.464,256s26.63,132.667,74.98,181.02 c48.353,48.352,112.64,74.98,181.02,74.98c40.729,0,79.674-9.291,115.755-27.612l29.316-14.887l-29.316-14.886 C391.103,436.276,360.625,408.41,339.08,374.03z"/>
</svg>
