<svg xmlns="http://www.w3.org/2000/svg" viewBox="0 0 128 128" fill="#000000">
    <path d="M122.25,89.685H120V29.373a11.764,11.764,0,0,0-11.75-11.75h-87A11.764,11.764,0,0,0,9.5,29.373V89.685H5.75A5.757,5.757,0,0,0,0,95.435v9.192a5.757,5.757,0,0,0,5.75,5.75h116.5a5.757,5.757,0,0,0,5.75-5.75V95.435A5.757,5.757,0,0,0,122.25,89.685ZM13,29.373a8.26,8.26,0,0,1,8.25-8.25h87a8.26,8.26,0,0,1,8.25,8.25V89.685H13ZM45.687,93.185H82.312V98.28H45.687ZM124.5,104.627a2.253,2.253,0,0,1-2.25,2.25H5.75a2.253,2.253,0,0,1-2.25-2.25V95.435a2.252,2.252,0,0,1,2.25-2.25H42.187v6.845a1.75,1.75,0,0,0,1.75,1.75H84.062a1.749,1.749,0,0,0,1.75-1.75V93.185H122.25a2.252,2.252,0,0,1,2.25,2.25Z"/>
    <path d="M110,81.435V29.373a1.751,1.751,0,0,0-1.75-1.75h-87a1.751,1.751,0,0,0-1.75,1.75V81.435a1.751,1.751,0,0,0,1.75,1.75h87A1.751,1.751,0,0,0,110,81.435Zm-3.5-1.75H23V31.123h83.5Z"/>
</svg>