<svg viewBox="0 0 512 512" xmlns="http://www.w3.org/2000/svg">
    <path d="m441.131 189.799h-50.742v-182.041a7.758 7.758 0 0 0 -7.758-7.758h-252.45a7.758 7.758 0 0 0 -7.758 7.758v182.042h-51.553c-39.077-.001-70.87 31.838-70.87 70.975v113.773c0 39.136 31.793 70.975 70.87 70.975h51.553v58.72a7.758 7.758 0 0 0 7.758 7.758h252.45a7.758 7.758 0 0 0 7.758-7.758v-58.72h50.742c39.078 0 70.869-31.839 70.869-70.975v-113.773c0-39.137-31.792-70.976-70.869-70.976zm-303.193-174.284h236.935v227.908h-236.935zm236.935 480.97h-236.935v-101.483h236.935zm121.612-121.938c0 30.581-24.831 55.46-55.354 55.46h-50.742v-35.006h8.021a7.758 7.758 0 0 0 0-15.516h-284.008a7.758 7.758 0 0 0 0 15.516h8.021v35.006h-51.553c-30.523 0-55.355-24.879-55.355-55.46v-49.642h480.97zm0-65.157h-480.97v-48.616c0-30.581 24.832-55.46 55.355-55.46h51.553v45.866a7.757 7.757 0 0 0 7.758 7.757h252.45a7.757 7.757 0 0 0 7.758-7.757v-45.866h50.742c30.523 0 55.354 24.88 55.354 55.46z"/><path d="m442.705 277.159c-12.533 0-22.73-10.208-22.73-22.756 0-12.547 10.197-22.756 22.73-22.756s22.73 10.208 22.73 22.756c-.001 12.548-10.198 22.756-22.73 22.756zm0-30.527c-4.271 0-7.746 3.486-7.746 7.772s3.475 7.772 7.746 7.772 7.746-3.486 7.746-7.772-3.476-7.772-7.746-7.772z"/>
</svg>
