<svg viewBox="0 0 128 128" xmlns="http://www.w3.org/2000/svg" fill="#000000">
    <path d="m102.736 81.107-8.8-47.059a7.564 7.564 0 0 0 -7.433-6.173h-45.01a7.564 7.564 0 0 0 -7.433 6.173l-8.8 47.06a6.129 6.129 0 0 0 -.346 2.017v10.851a6.156 6.156 0 0 0 6.149 6.149h65.871a6.156 6.156 0 0 0 6.149-6.149v-10.851a6.105 6.105 0 0 0 -.347-2.018zm-65.236-46.417a4.064 4.064 0 0 1 3.993-3.315h45.014a4.064 4.064 0 0 1 3.993 3.315l7.94 42.48a6.136 6.136 0 0 0 -1.506-.194h-65.868a6.136 6.136 0 0 0 -1.506.194zm14.833 45.786h23.334v4.107h-23.334zm47.25 13.5a2.652 2.652 0 0 1 -2.649 2.649h-65.868a2.652 2.652 0 0 1 -2.649-2.649v-10.851a2.652 2.652 0 0 1 2.649-2.649h17.767v5.857a1.75 1.75 0 0 0 1.75 1.75h26.834a1.75 1.75 0 0 0 1.75-1.75v-5.857h17.767a2.652 2.652 0 0 1 2.649 2.649z"/>
</svg>