<svg version="1.1" xmlns="http://www.w3.org/2000/svg" viewBox="0 0 323.776 323.776" fill="#ffffff">
    <path d="M162.32,93.543c-37.186,0-67.44,30.254-67.44,67.439s30.254,67.439,67.44,67.439c37.186,0,67.439-30.253,67.439-67.439 S199.506,93.543,162.32,93.543z"/>
    <path d="M75.331,95.207c2.929,2.929,6.768,4.394,10.606,4.394c3.839,0,7.678-1.464,10.606-4.394c5.858-5.858,5.858-15.355,0-21.213 L69.06,46.511c-5.857-5.858-15.355-5.858-21.213,0c-5.858,5.858-5.858,15.355,0,21.213L75.331,95.207z"/>
    <path d="M249.308,226.758c-5.857-5.858-15.355-5.858-21.213,0c-5.858,5.858-5.858,15.355,0,21.213l27.483,27.483 c2.929,2.929,6.768,4.393,10.606,4.393c3.839,0,7.678-1.464,10.607-4.393c5.858-5.858,5.858-15.355,0-21.213L249.308,226.758z"/>
    <path d="M238.701,99.601c3.839,0,7.678-1.464,10.607-4.394l27.483-27.484c5.858-5.858,5.858-15.355,0-21.213 c-5.857-5.858-15.355-5.858-21.213,0l-27.483,27.484c-5.858,5.858-5.858,15.356,0,21.213 C231.024,98.137,234.863,99.601,238.701,99.601z"/>
    <path d="M75.331,226.758l-27.484,27.483c-5.858,5.858-5.858,15.355,0,21.213c2.929,2.929,6.767,4.393,10.606,4.393 c3.838,0,7.678-1.465,10.606-4.393l27.484-27.483c5.858-5.858,5.858-15.355,0-21.213C90.687,220.9,81.19,220.9,75.331,226.758z"/>
    <path d="M53.868,176.983c4.142,0,7.892-1.726,10.607-4.441c2.714-2.714,4.393-6.441,4.393-10.583c0-8.284-6.715-14.976-15-14.976 H15c-8.284,0-15,6.716-15,15c0,8.284,6.715,15,15,15H53.868z"/>
    <path d="M269.908,146.983c-8.284,0-15,6.716-15,15c0,8.285,6.715,15,15,15h38.867c4.142,0,7.892-1.726,10.607-4.441 c2.715-2.715,4.394-6.441,4.393-10.583c0-8.285-6.715-14.976-15-14.976H269.908z"/>
    <path d="M172.461,64.474c2.715-2.715,4.359-6.465,4.359-10.607V15c0-8.285-6.716-15-15-15c-8.284-0.001-15,6.715-15,15v38.868 c0,8.285,6.733,15,15.017,15C165.979,68.868,169.746,67.189,172.461,64.474z"/>
    <path d="M146.82,269.908v38.867c0,8.284,6.75,15,15.034,15c4.143,0,7.875-1.678,10.59-4.393c2.714-2.714,4.376-6.465,4.376-10.607 v-38.867c0-8.284-6.716-15-15-15C153.536,254.908,146.82,261.623,146.82,269.908z"/>
</svg>
