<svg viewBox="0 0 24 24" xmlns="http://www.w3.org/2000/svg">
    <path d="m22.75 12.9995c0 .4141-.3359.75-.75.75h-3c-.3228 0-.6094-.2065-.7114-.5127l-.1855-.5566-1.3755 5.5015c-.0806.3232-.3657.5547-.6987.5674-.0098.0005-.0195.0005-.0288.0005-.3218 0-.6094-.2056-.7114-.5127l-3.2886-9.8657-3.2886 9.8657c-.105.3164-.3945.5332-.7402.5122-.333-.0127-.6182-.2441-.6987-.5674l-1.3755-5.5015-.1855.5566c-.1021.3062-.3887.5127-.7114.5127h-3.0002c-.4141 0-.75-.3359-.75-.75s.3359-.75.75-.75h2.4595l.8291-2.4873c.105-.3159.397-.5234.7402-.5122.333.0127.6182.2441.6987.5674l1.3755 5.5015 3.1855-9.5566c.1021-.3062.3887-.5127.7114-.5127s.6094.2065.7114.5127l3.1855 9.5566 1.3755-5.5015c.0806-.3232.3657-.5547.6987-.5674.3433-.0146.6353.1963.7402.5122l.8291 2.4873h2.4595c.4141 0 .75.3359.75.75z" fill="#ffffff"></path>
</svg>