<svg xmlns="http://www.w3.org/2000/svg" viewBox="0 0 512.427 512.427" fill="#ffffff">
    <path d="M314.495,0c-9.574-0.027-18.739,3.879-25.35,10.804L146.832,139.735c-42.822,3.84-76.8,54.342-76.8,116.364 s34.211,112.873,77.265,116.364l141.964,129.28c13.379,13.882,35.478,14.29,49.36,0.912c6.91-6.659,10.773-15.869,10.683-25.464 c0,0,0-0.815,0-1.28V36.288v-1.28C349.359,15.728,333.774,0.055,314.495,0z M139.85,347.328 c-26.531-8.611-46.545-46.545-46.545-91.229s20.015-82.618,46.545-91.229V347.328z M279.486,461.132L163.123,355.125v-198.4 l5.236-4.771L279.486,50.95V461.132z M326.032,67.706V477.19c-0.022,6.427-5.25,11.618-11.676,11.596 c-3.205-0.011-6.264-1.344-8.455-3.683l-3.142-2.793V29.888l3.375-3.142c4.526-4.563,11.893-4.593,16.456-0.068 c2.22,2.201,3.46,5.203,3.442,8.33V67.706z"/>
    <path d="M384.214,186.281c-6.427,0-11.636,5.21-11.636,11.636s5.21,11.636,11.636,11.636c19.316,0,34.909,20.829,34.909,46.545 s-15.593,46.545-34.909,46.545c-6.427,0-11.636,5.21-11.636,11.636s5.21,11.636,11.636,11.636 c32.116,0,58.182-31.302,58.182-69.818S416.33,186.281,384.214,186.281z"/>
</svg>