<svg viewBox="0 0 24 24" xmlns="http://www.w3.org/2000/svg" fill="#ffffff">
    <path clip-rule="evenodd" d="m1.5 4c0-1.38071 1.11929-2.5 2.5-2.5h16c1.3807 0 2.5 1.11929 2.5 2.5v16c0 1.3807-1.1193 2.5-2.5 2.5h-16c-1.38071 0-2.5-1.1193-2.5-2.5zm15 17.5h3.5c.8284 0 1.5-.6716 1.5-1.5v-16c0-.82843-.6716-1.5-1.5-1.5h-1.5v9.5c0 .2761-.2239.5-.5.5h-1.5zm-1-9v9h-7v-9h1.5c.2761 0 .5-.2239.5-.5v-9.5h3v9.5c0 .2761.2239.5.5.5zm2-1v-9h-3v9zm-10 10v-9h-1.5c-.27614 0-.5-.2239-.5-.5v-9.5h-1.5c-.82843 0-1.5.67157-1.5 1.5v16c0 .8284.67157 1.5 1.5 1.5zm2-10h-3v-9h3z" fill="#ffffff" fill-rule="evenodd"/>
</svg>