<svg xmlns="http://www.w3.org/2000/svg" viewBox="0 0 210.414 210.414" fill="#000000">
    <path d="M105.207,0C66.532,0,35.069,31.45,35.069,70.104v70.21c0,38.653,31.463,70.1,70.138,70.1 c38.675,0,70.138-31.446,70.138-70.1v-70.21C175.345,31.45,143.881,0,105.207,0z M167.552,140.314 c0,34.357-27.968,62.307-62.345,62.307c-34.377,0-62.345-27.95-62.345-62.307v-70.21c0-34.357,27.968-62.311,62.345-62.311 c34.377,0,62.345,27.953,62.345,62.311V140.314z"/>
    <path d="M105.207,23.379c-2.152,0-3.897,1.743-3.897,3.897v35.286c0,2.154,1.745,3.897,3.897,3.897 c2.152,0,3.897-1.743,3.897-3.897V27.276C109.103,25.122,107.359,23.379,105.207,23.379z" />
</svg>
