<svg xmlns="http://www.w3.org/2000/svg" viewBox="0 0 512.055 512.055" fill="#ffffff">
    <path d="M335.644,12.678C262.865-11.119,183.255-1.088,118.654,40.02S11.246,148.995,1.977,225.003 c-1.315,10.297-1.967,20.669-1.95,31.05c-0.009,18.007,1.858,35.965,5.572,53.584c16.064,76.086,66.065,140.636,135.719,175.211 c35.542,18.025,74.857,27.35,114.708,27.204c8.819,0.002,17.633-0.44,26.408-1.324c5.014-0.506,9.981-1.198,14.922-1.991 c107.79-17.702,192.495-101.814,210.953-209.477c2.491-14.268,3.735-28.725,3.717-43.208 C512.25,145.256,441.006,46.954,335.644,12.678z M140.627,46.893c1.801-0.997,3.622-1.954,5.447-2.903 c2.109-1.097,4.205-2.22,6.346-3.252c2.479-1.195,5.003-2.283,7.521-3.39c2.136-0.939,4.258-1.913,6.421-2.788 c2.583-1.045,5.209-1.975,7.828-2.928c2.159-0.785,4.301-1.616,6.483-2.339c2.692-0.892,5.423-1.658,8.146-2.454 c2.162-0.631,4.308-1.318,6.489-1.888c2.816-0.737,5.67-1.337,8.514-1.971c2.13-0.474,4.243-1.013,6.387-1.43 c3-0.583,6.032-1.018,9.057-1.486c2.023-0.314,4.031-0.701,6.064-0.962c3.36-0.433,6.746-0.702,10.129-0.993 c1.723-0.148,3.433-0.378,5.161-0.489c5.119-0.328,10.254-0.496,15.407-0.502c6.211,0,12.394,0.253,18.543,0.724 c2.065,0.158,4.102,0.482,6.158,0.693c4.07,0.418,8.145,0.815,12.179,1.44c2.409,0.373,4.782,0.915,7.177,1.361 c3.637,0.678,7.281,1.323,10.879,2.17c2.52,0.593,5,1.345,7.498,2.021c2.852,0.771,5.704,1.542,8.528,2.421 c12.922,27.032,21.972,55.749,26.884,85.305c-9.723,3.148-17.99,9.687-23.294,18.423c-53.455-18.509-111.07-21.443-166.129-8.461 c-6.087-10.209-16.158-17.415-27.785-19.881c-0.029-1.717-0.104-3.433-0.104-5.15C136.575,81.009,137.935,63.858,140.627,46.893z M308.714,337.251c-5.773-2.849-12.116-4.353-18.553-4.398c-12.755-0.051-24.846,5.682-32.878,15.59 c-53.051-42.333-91.336-100.375-109.368-165.807c13.957-7.321,22.722-21.757,22.78-37.517c-0.062-1.908-0.254-3.81-0.576-5.693 c51.353-11.767,104.979-8.879,154.771,8.335c-0.337,1.947-0.536,3.916-0.596,5.891c0.051,19.684,13.564,36.776,32.704,41.37 C352.492,245.608,335.936,294.378,308.714,337.251z M315.401,379.326c-1.86,12.51-12.592,21.777-25.24,21.793 c-6.146,0.048-12.096-2.164-16.717-6.217c-5.645-4.857-8.89-11.936-8.883-19.383c-0.005-3.794,0.853-7.54,2.508-10.954 c5.447-11.415,18.426-17.126,30.522-13.432C309.687,354.828,317.26,366.816,315.401,379.326z M341.361,153.653 c0.015-14.132,11.468-25.585,25.6-25.6c14.138,0,25.6,11.461,25.6,25.6c0,14.138-11.461,25.6-25.6,25.6 S341.361,167.791,341.361,153.653z M151.602,135.143l0.001,0.014l0.023,0.046c4.372,10.406,1.411,22.448-7.287,29.641 s-21.081,7.84-30.482,1.592c-9.4-6.248-13.599-17.915-10.335-28.72c3.264-10.805,13.219-18.197,24.507-18.196 C138.307,119.53,147.587,125.68,151.602,135.143z M121.883,58.406c-1.565,13.203-2.363,26.485-2.389,39.781 c0,1.706,0.078,3.412,0.104,5.119c-11.073,2.19-20.819,8.696-27.087,18.084c-6.268,9.387-8.541,20.883-6.319,31.95 c-22.655,12.532-43.571,27.978-62.215,45.943C38.143,141.865,73.007,91.7,121.883,58.406z M139.86,464.632 c-2.398-1.331-4.821-2.629-7.16-4.032c-2.471-1.483-4.852-3.071-7.256-4.633c-2.243-1.457-4.516-2.879-6.699-4.403 c-2.373-1.656-4.649-3.416-6.951-5.15c-2.087-1.572-4.208-3.107-6.236-4.74c-2.275-1.833-4.445-3.767-6.644-5.676 c-1.921-1.667-3.881-3.296-5.742-5.019c-2.157-1.997-4.204-4.094-6.281-6.165c-1.77-1.764-3.583-3.49-5.293-5.305 c-2.023-2.149-3.928-4.393-5.865-6.612c-1.62-1.855-3.289-3.669-4.848-5.571c-1.885-2.299-3.644-4.691-5.439-7.057 c-1.466-1.932-2.987-3.826-4.392-5.8c-1.737-2.442-3.34-4.973-4.982-7.478c-1.313-2.002-2.684-3.966-3.935-6.006 c-1.58-2.578-3.017-5.239-4.497-7.876c-1.159-2.065-2.383-4.092-3.48-6.192c-1.417-2.712-2.684-5.503-3.995-8.271 c-1.001-2.111-2.071-4.185-3.01-6.328c-1.243-2.835-2.326-5.745-3.458-8.632c-0.846-2.157-1.768-4.28-2.551-6.465 c-1.057-2.948-1.947-5.964-2.889-8.959c-0.69-2.195-1.464-4.357-2.092-6.577c-0.872-3.081-1.566-6.226-2.316-9.351 c-0.526-2.197-1.142-4.364-1.607-6.581c-0.697-3.32-1.205-6.699-1.763-10.062c-0.344-2.075-0.783-4.121-1.074-6.211 c-0.524-3.774-0.846-7.601-1.193-11.42c-0.157-1.727-0.412-3.429-0.532-5.165c-0.386-5.574-0.58-11.188-0.584-16.843 c0-4.767,0.157-9.473,0.437-14.116c0.083-1.378,0.244-2.704,0.351-4.066c0.219-2.777,0.469-5.534,0.789-8.25 c21.072-24.253,46.157-44.702,74.16-60.453c7.936,11.64,21.109,18.608,35.196,18.618c1.199,0,2.329-0.257,3.504-0.354 c19.329,69.876,60.58,131.7,117.681,176.373c-1.124,3.804-1.703,7.748-1.718,11.715c-0.002,9.139,2.934,18.036,8.374,25.379 c-31.651,29.666-69.08,52.485-109.948,67.034C143.87,466.87,141.868,465.747,139.86,464.632z M256.027,494.986 c-30.366,0.066-60.457-5.748-88.612-17.122c37.381-15.608,71.654-37.803,101.188-65.527c16.469,9.671,37.367,7.165,51.084-6.124 c30.78,13.741,63.472,22.721,96.953,26.63C372.83,473.029,315.477,495.22,256.027,494.986z M432.271,417.176 c-35.459-2.587-70.226-11.146-102.833-25.315c6.372-14.884,3.621-32.105-7.072-44.262c29.306-45.725,47.054-97.889,51.716-151.999 c8.356-1.408,16.099-5.284,22.233-11.131c41.149,29.065,73.819,68.559,94.657,114.426 C483.054,343.103,462.69,384.135,432.271,417.176z M494.44,268.283c-21.851-38.718-52.013-72.11-88.315-97.774 c5.419-12.492,4.509-26.827-2.446-38.535c-6.955-11.707-19.108-19.362-32.671-20.579c-4.283-25.894-11.585-51.198-21.757-75.393 c88.458,37.306,145.895,124.047,145.709,220.05C494.961,260.162,494.648,264.212,494.44,268.283z"/>
</svg>