<svg viewBox="0 0 512 512" xmlns="http://www.w3.org/2000/svg">
    <path d="m429.706 90.294c-45.33-45.33-105.6-70.294-169.706-70.294s-124.375 24.964-169.706 70.294-70.294 105.6-70.294 169.706 24.964 124.376 70.294 169.706 105.6 70.294 169.706 70.294 124.376-24.964 169.706-70.294 70.294-105.6 70.294-169.706-24.964-124.375-70.294-169.706zm-169.706 389.706c-121.309 0-220-98.691-220-220s98.691-220 220-220 220 98.691 220 220-98.691 220-220 220z"/>
    <path d="m260 80c-99.252 0-180 80.748-180 180s80.748 180 180 180 180-80.748 180-180-80.748-180-180-180zm0 340c-88.224 0-160-71.775-160-160 0-88.224 71.776-160 160-160 88.225 0 160 71.776 160 160 0 88.225-71.775 160-160 160z"/>
    <path d="m336.006 168.075-183.02 79.738c-3.943 1.718-6.346 5.764-5.967 10.048s3.455 7.847 7.638 8.846l71.327 17.035 19.593 78.675c1.025 4.114 4.534 7.136 8.755 7.538.319.03.637.045.953.045 3.863 0 7.42-2.237 9.068-5.794l84.719-182.758c1.747-3.768.982-8.224-1.92-11.194s-7.338-3.84-11.146-2.179zm-77.873 161.995-14.209-57.06c-.902-3.623-3.749-6.442-7.38-7.31l-48.148-11.499 131.458-57.274z"/>
</svg>