<svg viewBox="0 0 64 64" xmlns="http://www.w3.org/2000/svg" fill="#000000">
    <path d="m60 13h-56a4.0042 4.0042 0 0 0 -4 4v16a4.0042 4.0042 0 0 0 4 4h23v6h-9a4.0042 4.0042 0 0 0 -4 4v3a1 1 0 0 0 1 1h34a1 1 0 0 0 1-1v-3a4.0039 4.0039 0 0 0 -4-4h-9v-6h23a4.0039 4.0039 0 0 0 4-4v-16a4.0039 4.0039 0 0 0 -4-4zm-58 20v-16a2.0023 2.0023 0 0 1 2-2h9.5484a20.8944 20.8944 0 0 0 0 20h-9.5484a2.0023 2.0023 0 0 1 -2-2zm46 14v2h-32v-2a2.0023 2.0023 0 0 1 2-2h28a2.0027 2.0027 0 0 1 2 2zm-13-4h-6v-6h6zm-19.1479-8a18.957 18.957 0 0 1 0-20h32.2963a18.96 18.96 0 0 1 0 20zm46.1479-2a2.0027 2.0027 0 0 1 -2 2h-9.548a20.8972 20.8972 0 0 0 0-20h9.548a2.0027 2.0027 0 0 1 2 2z"/>
    <path d="m32 16a9 9 0 1 0 9 9 9.01 9.01 0 0 0 -9-9zm0 16a7 7 0 1 1 7-7 7.0081 7.0081 0 0 1 -7 7z"/><path d="m32 19a6.0066 6.0066 0 0 0 -6 6 1 1 0 0 0 2 0 4.0042 4.0042 0 0 1 4-4 1 1 0 0 0 0-2z"/>
</svg>