<svg xmlns="http://www.w3.org/2000/svg" viewBox="0 0 128 128" fill="#000000">
    <path d="M88.873,29.763a1.752,1.752,0,0,0-1.238-.513H40.365a1.752,1.752,0,0,0-1.238.513l-9.364,9.365a1.75,1.75,0,0,0-.513,1.237v47.27a1.75,1.75,0,0,0,.513,1.237l9.364,9.365a1.752,1.752,0,0,0,1.238.513h47.27a1.752,1.752,0,0,0,1.238-.513l9.364-9.365a1.75,1.75,0,0,0,.513-1.237V40.365a1.75,1.75,0,0,0-.513-1.237ZM95.25,86.91l-8.34,8.34H41.09l-8.34-8.34V41.09l8.34-8.34H86.91l8.34,8.34Z"/><path d="M121,53.417a1.75,1.75,0,0,0,0-3.5H110.75V41.083H121a1.75,1.75,0,0,0,0-3.5H110.75V23.5a6.257,6.257,0,0,0-6.25-6.25H90.417V7a1.75,1.75,0,0,0-3.5,0V17.25H78.083V7a1.75,1.75,0,0,0-3.5,0V17.25H65.75V7a1.75,1.75,0,0,0-3.5,0V17.25H53.417V7a1.75,1.75,0,0,0-3.5,0V17.25H41.083V7a1.75,1.75,0,0,0-3.5,0V17.25H23.5a6.257,6.257,0,0,0-6.25,6.25V37.583H7a1.75,1.75,0,0,0,0,3.5H17.25v8.834H7a1.75,1.75,0,0,0,0,3.5H17.25V62.25H7a1.75,1.75,0,0,0,0,3.5H17.25v8.833H7a1.75,1.75,0,0,0,0,3.5H17.25v8.834H7a1.75,1.75,0,0,0,0,3.5H17.25V104.5a6.257,6.257,0,0,0,6.25,6.25H37.583V121a1.75,1.75,0,0,0,3.5,0V110.75h8.834V121a1.75,1.75,0,0,0,3.5,0V110.75H62.25V121a1.75,1.75,0,0,0,3.5,0V110.75h8.833V121a1.75,1.75,0,0,0,3.5,0V110.75h8.834V121a1.75,1.75,0,0,0,3.5,0V110.75H104.5a6.257,6.257,0,0,0,6.25-6.25V90.417H121a1.75,1.75,0,0,0,0-3.5H110.75V78.083H121a1.75,1.75,0,0,0,0-3.5H110.75V65.75H121a1.75,1.75,0,0,0,0-3.5H110.75V53.417ZM107.25,104.5a2.753,2.753,0,0,1-2.75,2.75h-81a2.753,2.753,0,0,1-2.75-2.75v-81a2.753,2.753,0,0,1,2.75-2.75h81a2.753,2.753,0,0,1,2.75,2.75Z"/>
    <path d="M65,54.25H59A1.751,1.751,0,0,0,57.25,56V72a1.75,1.75,0,0,0,3.5,0V65.75H65a5.75,5.75,0,0,0,0-11.5Zm0,8H60.75v-4.5H65a2.25,2.25,0,0,1,0,4.5Z"/>
    <path d="M43,57.75h8a1.75,1.75,0,0,0,0-3.5H43A5.757,5.757,0,0,0,37.25,60v8A5.757,5.757,0,0,0,43,73.75h4A5.757,5.757,0,0,0,52.75,68V64A1.75,1.75,0,0,0,51,62.25H47a1.75,1.75,0,0,0,0,3.5h2.25V68A2.253,2.253,0,0,1,47,70.25H43A2.253,2.253,0,0,1,40.75,68V60A2.253,2.253,0,0,1,43,57.75Z"/>
    <path d="M85,70.25H81A2.253,2.253,0,0,1,78.75,68V56a1.75,1.75,0,0,0-3.5,0V68A5.757,5.757,0,0,0,81,73.75h4A5.757,5.757,0,0,0,90.75,68V56a1.75,1.75,0,0,0-3.5,0V68A2.253,2.253,0,0,1,85,70.25Z"/>
</svg>