<svg viewBox="0 0 512 512" xmlns="http://www.w3.org/2000/svg" fill="#000000">
    <path d="m344.786 112.337h-14.9v-104.337a8 8 0 0 0 -8-8h-131.776a8 8 0 0 0 -8 8v104.337h-14.9a8 8 0 0 0 -8 8v105.637a96.834 96.834 0 0 0 47.957 83.535v64.874a8 8 0 0 0 8 8h11.01v121.617a8 8 0 0 0 8 8h43.638a8 8 0 0 0 8-8v-121.617h11.01a8 8 0 0 0 8-8v-64.874a96.834 96.834 0 0 0 47.957-83.535v-105.637a8 8 0 0 0 -7.996-8zm-146.676-96.337h115.78v96.337h-115.78zm71.709 480h-27.638v-113.617h27.638zm19.01-129.617h-65.658v-49.359a96.814 96.814 0 0 0 65.658 0zm47.957-140.409a80.786 80.786 0 0 1 -161.572 0v-97.637h161.572zm-94.986-180.924v38.237a8 8 0 0 1 -16 0v-38.237a8 8 0 1 1 16 0zm44.392 0v38.237a8 8 0 1 1 -16 0v-38.237a8 8 0 0 1 16 0z"/>
</svg>